<svg xmlns="http://www.w3.org/2000/svg" xmlns:xlink="http://www.w3.org/1999/xlink" width="308.689" height="54.897" viewBox="0 0 308.689 54.897">
  <defs>
    <clipPath id="clip-path">
      <path id="Path_67" data-name="Path 67" d="M0-182.952H82.9v-54.9H0Z" transform="translate(0 237.849)" fill="none"/>
    </clipPath>
    <clipPath id="clip-path-2">
      <path id="Path_89" data-name="Path 89" d="M0-90.308H209.167v-54.9H0Z" transform="translate(0 145.205)" fill="#fff"/>
    </clipPath>
  </defs>
  <g id="Group_168" data-name="Group 168" transform="translate(-9911 1998.949)">
    <g id="Group_107" data-name="Group 107" transform="translate(9911 -1998.949)" clip-path="url(#clip-path)">
      <g id="Group_103" data-name="Group 103" transform="translate(0 0)">
        <path id="Path_63" data-name="Path 63" d="M-273.725-126.992h-3.757a.678.678,0,0,0-.767.767v1.764a8.805,8.805,0,0,1-2.914,6.9,11.178,11.178,0,0,1-7.744,2.606,9.983,9.983,0,0,1-7.131-2.453,8.436,8.436,0,0,1-2.607-6.44,8.22,8.22,0,0,1,1.227-4.524,12.528,12.528,0,0,1,3.6-3.527q2.377-1.611,6.824-4.064a72.671,72.671,0,0,0,7.475-4.447,15.649,15.649,0,0,0,4.409-4.677,12.706,12.706,0,0,0,1.687-6.747q0-6.21-3.987-9.737t-10.657-3.527q-7.13,0-11.347,3.91a12.977,12.977,0,0,0-2,2.344,13.863,13.863,0,0,0-4.8-4.3,16.87,16.87,0,0,0-8.242-1.955,16.865,16.865,0,0,0-8.242,1.955,13.629,13.629,0,0,0-4.744,4.26,12.99,12.99,0,0,0-1.974-2.305q-4.217-3.91-11.347-3.91-6.671,0-10.657,3.527t-3.987,9.737a12.706,12.706,0,0,0,1.687,6.747,15.648,15.648,0,0,0,4.409,4.677,72.666,72.666,0,0,0,7.475,4.447q4.446,2.455,6.824,4.064a12.528,12.528,0,0,1,3.6,3.527,8.22,8.22,0,0,1,1.227,4.524,8.436,8.436,0,0,1-2.607,6.44,9.983,9.983,0,0,1-7.131,2.453,11.178,11.178,0,0,1-7.744-2.606,8.8,8.8,0,0,1-2.914-6.9v-1.764a.678.678,0,0,0-.767-.767h-3.757a.678.678,0,0,0-.767.767v2.07A12.936,12.936,0,0,0-351.6-114q4.255,3.8,11.462,3.8,7.131,0,11.271-3.8a12.47,12.47,0,0,0,1.744-1.97,13.756,13.756,0,0,0,4.437,3.81,16.865,16.865,0,0,0,8.242,1.955,16.87,16.87,0,0,0,8.242-1.955A13.984,13.984,0,0,0-301.719-116,12.467,12.467,0,0,0-299.947-114q4.14,3.8,11.271,3.8,7.207,0,11.462-3.8a12.936,12.936,0,0,0,4.255-10.159v-2.07a.678.678,0,0,0-.767-.767m-56.44-7.894q-.322-.256-.661-.5a84.517,84.517,0,0,0-8.012-4.945q-4.525-2.453-6.709-3.911a11.5,11.5,0,0,1-3.335-3.22,7.835,7.835,0,0,1-1.15-4.37,8.119,8.119,0,0,1,2.415-6.287,9.533,9.533,0,0,1,6.709-2.224,10.518,10.518,0,0,1,7.591,2.645c1.84,1.764,3.153,6.468,3.153,9.329Zm8.28-22.507a9.848,9.848,0,0,1,7.437-2.952,9.945,9.945,0,0,1,7.514,2.952,10.764,10.764,0,0,1,2.837,7.782v19.942h-20.625V-149.61a10.76,10.76,0,0,1,2.837-7.782m14.951,39.524a10.01,10.01,0,0,1-7.514,2.913,9.911,9.911,0,0,1-7.437-2.913,10.52,10.52,0,0,1-2.837-7.667v-2.31a10.474,10.474,0,0,0,10.313,8.648,10.474,10.474,0,0,0,10.312-8.643v2.306a10.524,10.524,0,0,1-2.837,7.667m8.281-30.5c0-2.862,1.314-7.566,3.154-9.33a10.518,10.518,0,0,1,7.591-2.645,9.533,9.533,0,0,1,6.709,2.224,8.12,8.12,0,0,1,2.415,6.287,7.835,7.835,0,0,1-1.15,4.37,11.5,11.5,0,0,1-3.335,3.22q-2.185,1.458-6.709,3.911a84.512,84.512,0,0,0-8.012,4.945q-.34.247-.662.5Z" transform="translate(355.86 165.098)" fill="#efb658"/>
      </g>
      <g id="Group_104" data-name="Group 104" transform="translate(32.59 18.711)">
        <path id="Path_64" data-name="Path 64" d="M-13.933-27.866a4.181,4.181,0,0,0,4.181-4.181,4.181,4.181,0,0,0-4.181-4.181,4.181,4.181,0,0,0-4.181,4.181,4.181,4.181,0,0,0,4.181,4.181" transform="translate(18.114 36.228)" fill="#efb658"/>
      </g>
      <g id="Group_105" data-name="Group 105" transform="translate(41.95 18.711)">
        <path id="Path_65" data-name="Path 65" d="M-13.933-27.866a4.181,4.181,0,0,0,4.181-4.181,4.181,4.181,0,0,0-4.181-4.181,4.181,4.181,0,0,0-4.181,4.181,4.181,4.181,0,0,0,4.181,4.181" transform="translate(18.114 36.228)" fill="#efb658"/>
      </g>
      <g id="Group_106" data-name="Group 106" transform="translate(39.183 29.367)">
        <path id="Path_66" data-name="Path 66" d="M-7.557,0A2.268,2.268,0,0,0-9.825,2.268H-5.29A2.268,2.268,0,0,0-7.557,0" transform="translate(9.825)" fill="#efb658"/>
      </g>
    </g>
    <g id="Group_130" data-name="Group 130" transform="translate(10010.522 -1998.948)" clip-path="url(#clip-path-2)">
      <g id="Group_109" data-name="Group 109" transform="translate(0 0)">
        <path id="Path_68" data-name="Path 68" d="M-6.416-40.708A6.73,6.73,0,0,1-9.3-43.177a6.653,6.653,0,0,1-1.02-3.668v-.93a.414.414,0,0,1,.125-.3.414.414,0,0,1,.3-.125h4.115a.415.415,0,0,1,.3.125.416.416,0,0,1,.126.3v.68A2.7,2.7,0,0,0-4.412-45a3.592,3.592,0,0,0,2.505.841,2.926,2.926,0,0,0,2.129-.716A2.442,2.442,0,0,0,.955-46.7,2.218,2.218,0,0,0,.49-48.116,4.963,4.963,0,0,0-.816-49.225q-.842-.518-2.595-1.414a30.292,30.292,0,0,1-3.507-2,8.569,8.569,0,0,1-2.326-2.4,6.3,6.3,0,0,1-.966-3.543,6.648,6.648,0,0,1,.984-3.632,6.423,6.423,0,0,1,2.773-2.4,9.487,9.487,0,0,1,4.08-.841,9.554,9.554,0,0,1,4.259.912,6.968,6.968,0,0,1,2.9,2.559,6.962,6.962,0,0,1,1.038,3.794v.716a.414.414,0,0,1-.125.3.413.413,0,0,1-.3.126H1.278a.413.413,0,0,1-.3-.126.413.413,0,0,1-.125-.3v-.644a2.853,2.853,0,0,0-.895-2.147,3.367,3.367,0,0,0-2.434-.859,2.909,2.909,0,0,0-2.022.662,2.356,2.356,0,0,0-.733,1.843,2.415,2.415,0,0,0,.429,1.431,4.469,4.469,0,0,0,1.324,1.163q.894.555,2.72,1.449l.751.429A32.893,32.893,0,0,1,3.228-52.16a7.285,7.285,0,0,1,1.95,2.129,5.865,5.865,0,0,1,.787,3.113,6.5,6.5,0,0,1-2.2,5.171,8.6,8.6,0,0,1-5.851,1.915,10.053,10.053,0,0,1-4.33-.877" transform="translate(10.317 65.454)" fill="#fff"/>
      </g>
      <g id="Group_110" data-name="Group 110" transform="translate(19.324 0.286)">
        <path id="Path_69" data-name="Path 69" d="M-.206-41a.411.411,0,0,1-.125-.3V-65.5a.412.412,0,0,1,.125-.3.413.413,0,0,1,.3-.126H4.285a.416.416,0,0,1,.3.126.415.415,0,0,1,.125.3v20.112a.158.158,0,0,0,.179.179h9.591a.417.417,0,0,1,.3.125.417.417,0,0,1,.125.3v3.471a.414.414,0,0,1-.125.3.414.414,0,0,1-.3.125H.1A.411.411,0,0,1-.206-41" transform="translate(0.331 65.928)" fill="#fff"/>
      </g>
      <g id="Group_111" data-name="Group 111" transform="translate(37.181 0.286)">
        <path id="Path_70" data-name="Path 70" d="M-.206-41a.411.411,0,0,1-.125-.3V-65.5a.412.412,0,0,1,.125-.3.413.413,0,0,1,.3-.126H4.285a.416.416,0,0,1,.3.126.415.415,0,0,1,.125.3v24.191a.414.414,0,0,1-.125.3.414.414,0,0,1-.3.125H.1A.411.411,0,0,1-.206-41" transform="translate(0.331 65.928)" fill="#fff"/>
      </g>
      <g id="Group_112" data-name="Group 112" transform="translate(45.984 0.286)">
        <path id="Path_71" data-name="Path 71" d="M-.206-41a.411.411,0,0,1-.125-.3V-65.5a.412.412,0,0,1,.125-.3.413.413,0,0,1,.3-.126H7.792a9.6,9.6,0,0,1,4.241.895,6.634,6.634,0,0,1,2.845,2.541,7.223,7.223,0,0,1,1,3.829v10.521a7.219,7.219,0,0,1-1,3.829,6.626,6.626,0,0,1-2.845,2.541,9.6,9.6,0,0,1-4.241.895H.1A.411.411,0,0,1-.206-41m5.1-4.2,2.935-.036a2.707,2.707,0,0,0,2.147-.948,3.853,3.853,0,0,0,.859-2.523v-9.376a3.77,3.77,0,0,0-.823-2.559A2.749,2.749,0,0,0,7.828-61.6H4.893a.158.158,0,0,0-.179.179v16.032a.158.158,0,0,0,.179.179" transform="translate(0.331 65.928)" fill="#fff"/>
      </g>
      <g id="Group_113" data-name="Group 113" transform="translate(65.523 0.287)">
        <path id="Path_72" data-name="Path 72" d="M-24.872-6.917a.414.414,0,0,1-.3.125h-9.59a.158.158,0,0,0-.179.179V-1.03a.158.158,0,0,0,.179.179h5.976a.416.416,0,0,1,.3.126.415.415,0,0,1,.125.3V3.049a.414.414,0,0,1-.125.3.414.414,0,0,1-.3.126h-5.976a.158.158,0,0,0-.179.179V9.419a.158.158,0,0,0,.179.179h9.59a.417.417,0,0,1,.3.125.416.416,0,0,1,.125.3V13.5a.415.415,0,0,1-.125.3.414.414,0,0,1-.3.125H-39.563a.412.412,0,0,1-.3-.125.412.412,0,0,1-.125-.3V-10.693a.414.414,0,0,1,.125-.3.415.415,0,0,1,.3-.125h14.386a.417.417,0,0,1,.3.125.417.417,0,0,1,.125.3v3.471a.414.414,0,0,1-.125.3" transform="translate(39.992 11.122)" fill="#fff"/>
      </g>
      <g id="Group_114" data-name="Group 114" transform="translate(90.895 0.286)">
        <path id="Path_73" data-name="Path 73" d="M-23.607,0h4.151a.417.417,0,0,1,.3.125.417.417,0,0,1,.125.3V24.621a.415.415,0,0,1-.125.3.414.414,0,0,1-.3.125h-4.187a.411.411,0,0,1-.3-.125.412.412,0,0,1-.125-.3V8.732c0-.095-.024-.149-.072-.161s-.1.018-.143.09L-27.579,14.1a.512.512,0,0,1-.5.286H-28.9a.511.511,0,0,1-.5-.286L-32.7,8.66c-.048-.072-.1-.1-.143-.09s-.071.066-.071.161V24.621a.414.414,0,0,1-.126.3.413.413,0,0,1-.3.125h-4.187a.412.412,0,0,1-.3-.125.413.413,0,0,1-.125-.3V.429a.415.415,0,0,1,.125-.3.415.415,0,0,1,.3-.125h4.151a.514.514,0,0,1,.5.286l4.294,7.05q.107.215.215,0l4.259-7.05a.513.513,0,0,1,.5-.286" transform="translate(37.957 0)" fill="#fff"/>
      </g>
      <g id="Group_115" data-name="Group 115" transform="translate(113.118 0)">
        <path id="Path_74" data-name="Path 74" d="M-6.505-40.561a7.156,7.156,0,0,1-2.916-2.827,8.463,8.463,0,0,1-1.038-4.259v-9.519a8.39,8.39,0,0,1,1.038-4.223,7.156,7.156,0,0,1,2.916-2.827,9.105,9.105,0,0,1,4.348-1,9.213,9.213,0,0,1,4.366,1,7.134,7.134,0,0,1,2.934,2.827,8.394,8.394,0,0,1,1.038,4.223v9.519a8.467,8.467,0,0,1-1.038,4.259,7.134,7.134,0,0,1-2.934,2.827,9.209,9.209,0,0,1-4.366,1,9.1,9.1,0,0,1-4.348-1M.24-44.874a3.658,3.658,0,0,0,.895-2.559v-9.877A3.711,3.711,0,0,0,.24-59.9a3.083,3.083,0,0,0-2.4-.984,3.04,3.04,0,0,0-2.362.984,3.708,3.708,0,0,0-.895,2.594v9.877a3.655,3.655,0,0,0,.895,2.559,3.038,3.038,0,0,0,2.362.984,3.082,3.082,0,0,0,2.4-.984" transform="translate(10.46 65.218)" fill="#fff"/>
      </g>
      <g id="Group_116" data-name="Group 116" transform="translate(133.122 0.287)">
        <path id="Path_75" data-name="Path 75" d="M-20.457-.206a.414.414,0,0,1,.3-.125H-16a.416.416,0,0,1,.3.125.417.417,0,0,1,.125.3V24.29a.414.414,0,0,1-.125.3.414.414,0,0,1-.3.126h-4.366a.507.507,0,0,1-.5-.322L-27.7,9.832q-.072-.107-.143-.107c-.048,0-.072.048-.072.143l.036,14.422a.413.413,0,0,1-.126.3.413.413,0,0,1-.3.126h-4.151a.412.412,0,0,1-.3-.126.413.413,0,0,1-.125-.3V.1a.415.415,0,0,1,.125-.3.415.415,0,0,1,.3-.125h4.33a.507.507,0,0,1,.5.322L-20.8,14.556q.071.108.143.108c.048,0,.071-.048.071-.143V.1a.414.414,0,0,1,.126-.3" transform="translate(32.893 0.331)" fill="#fff"/>
      </g>
      <g id="Group_117" data-name="Group 117" transform="translate(154.236 0.286)">
        <path id="Path_76" data-name="Path 76" d="M-.206-41a.411.411,0,0,1-.125-.3V-65.5a.412.412,0,0,1,.125-.3.413.413,0,0,1,.3-.126H4.285a.416.416,0,0,1,.3.126.415.415,0,0,1,.125.3v9.519a.138.138,0,0,0,.09.143c.059.024.1,0,.125-.071l6.406-9.734a.561.561,0,0,1,.5-.287h4.616a.371.371,0,0,1,.34.143.322.322,0,0,1-.054.358l-6.62,10.271a.445.445,0,0,0,0,.25l7.014,13.527a.558.558,0,0,1,.071.215c0,.191-.132.286-.394.286H12.23a.552.552,0,0,1-.5-.322L6.647-51c-.024-.072-.06-.107-.107-.107s-.1.036-.143.107L4.786-48.679a.547.547,0,0,0-.071.215v7.157a.414.414,0,0,1-.125.3.414.414,0,0,1-.3.125H.1A.411.411,0,0,1-.206-41" transform="translate(0.331 65.928)" fill="#fff"/>
      </g>
      <g id="Group_118" data-name="Group 118" transform="translate(174.205 0.287)">
        <path id="Path_77" data-name="Path 77" d="M-24.872-6.917a.414.414,0,0,1-.3.125h-9.59a.158.158,0,0,0-.179.179V-1.03a.158.158,0,0,0,.179.179h5.976a.416.416,0,0,1,.3.126.415.415,0,0,1,.125.3V3.049a.414.414,0,0,1-.125.3.414.414,0,0,1-.3.126h-5.976a.158.158,0,0,0-.179.179V9.419a.158.158,0,0,0,.179.179h9.59a.417.417,0,0,1,.3.125.416.416,0,0,1,.125.3V13.5a.415.415,0,0,1-.125.3.414.414,0,0,1-.3.125H-39.563a.412.412,0,0,1-.3-.125.412.412,0,0,1-.125-.3V-10.693a.414.414,0,0,1,.125-.3.415.415,0,0,1,.3-.125h14.386a.417.417,0,0,1,.3.125.417.417,0,0,1,.125.3v3.471a.414.414,0,0,1-.125.3" transform="translate(39.992 11.122)" fill="#fff"/>
      </g>
      <g id="Group_119" data-name="Group 119" transform="translate(191.561 0.287)">
        <path id="Path_78" data-name="Path 78" d="M-10.508-40.944a.412.412,0,0,1-.126-.3v-9.161l-.036-.214L-16.86-65.332a.492.492,0,0,1-.036-.215q0-.286.358-.286h4.509a.471.471,0,0,1,.5.358L-8.2-56.421c.023.072.059.107.107.107s.084-.036.107-.107l3.328-9.054a.471.471,0,0,1,.5-.358H.353q.25,0,.322.143a.461.461,0,0,1,0,.358L-5.552-50.624l-.036.214v9.161a.415.415,0,0,1-.125.3.414.414,0,0,1-.3.125H-10.2a.411.411,0,0,1-.3-.125" transform="translate(16.896 65.833)" fill="#fff"/>
      </g>
      <g id="Group_120" data-name="Group 120" transform="translate(0 29.238)">
        <path id="Path_79" data-name="Path 79" d="M-6.417-40.561A6.9,6.9,0,0,1-9.3-43.317a8.239,8.239,0,0,1-1.02-4.151v-9.949a8.068,8.068,0,0,1,1.02-4.1,6.937,6.937,0,0,1,2.881-2.738,9.185,9.185,0,0,1,4.294-.966,9.332,9.332,0,0,1,4.294.949A6.92,6.92,0,0,1,5.052-61.6,7.7,7.7,0,0,1,6.072-57.6v.179a.476.476,0,0,1-.125.322.39.39,0,0,1-.3.143l-4.187.179q-.429,0-.429-.394v-.465a3.269,3.269,0,0,0-.859-2.362,3.029,3.029,0,0,0-2.29-.895,3.028,3.028,0,0,0-2.29.895,3.268,3.268,0,0,0-.859,2.362v10.485A3.2,3.2,0,0,0-4.413-44.8a3.058,3.058,0,0,0,2.29.877A3.06,3.06,0,0,0,.168-44.8a3.2,3.2,0,0,0,.859-2.344v-.465q0-.394.429-.394l4.187.179a.417.417,0,0,1,.3.125.417.417,0,0,1,.125.3v.107a7.9,7.9,0,0,1-1.02,4.044,6.85,6.85,0,0,1-2.881,2.7,9.327,9.327,0,0,1-4.294.949,9.185,9.185,0,0,1-4.294-.966" transform="translate(10.318 65.218)" fill="#fff"/>
      </g>
      <g id="Group_121" data-name="Group 121" transform="translate(19.181 29.238)">
        <path id="Path_80" data-name="Path 80" d="M-6.505-40.561a7.156,7.156,0,0,1-2.916-2.827,8.463,8.463,0,0,1-1.038-4.259v-9.519a8.39,8.39,0,0,1,1.038-4.223,7.156,7.156,0,0,1,2.916-2.827,9.105,9.105,0,0,1,4.348-1,9.213,9.213,0,0,1,4.366,1,7.134,7.134,0,0,1,2.934,2.827,8.394,8.394,0,0,1,1.038,4.223v9.519a8.467,8.467,0,0,1-1.038,4.259,7.134,7.134,0,0,1-2.934,2.827,9.209,9.209,0,0,1-4.366,1,9.1,9.1,0,0,1-4.348-1M.24-44.874a3.658,3.658,0,0,0,.895-2.559v-9.877A3.711,3.711,0,0,0,.24-59.9a3.083,3.083,0,0,0-2.4-.984,3.04,3.04,0,0,0-2.362.984,3.708,3.708,0,0,0-.895,2.594v9.877a3.655,3.655,0,0,0,.895,2.559,3.038,3.038,0,0,0,2.362.984,3.082,3.082,0,0,0,2.4-.984" transform="translate(10.46 65.218)" fill="#fff"/>
      </g>
      <g id="Group_122" data-name="Group 122" transform="translate(39.186 29.525)">
        <path id="Path_81" data-name="Path 81" d="M-20.457-.206a.414.414,0,0,1,.3-.125H-16a.416.416,0,0,1,.3.125.417.417,0,0,1,.125.3V24.29a.414.414,0,0,1-.125.3.414.414,0,0,1-.3.126h-4.366a.507.507,0,0,1-.5-.322L-27.7,9.832q-.072-.107-.143-.107c-.048,0-.072.048-.072.143l.036,14.422a.413.413,0,0,1-.126.3.413.413,0,0,1-.3.126h-4.151a.412.412,0,0,1-.3-.126.413.413,0,0,1-.125-.3V.1a.415.415,0,0,1,.125-.3.415.415,0,0,1,.3-.125h4.33a.507.507,0,0,1,.5.322L-20.8,14.556q.071.108.143.108c.048,0,.071-.048.071-.143V.1a.414.414,0,0,1,.126-.3" transform="translate(32.893 0.331)" fill="#fff"/>
      </g>
      <g id="Group_123" data-name="Group 123" transform="translate(59.584 29.239)">
        <path id="Path_82" data-name="Path 82" d="M-6.416-40.708A6.73,6.73,0,0,1-9.3-43.177a6.653,6.653,0,0,1-1.02-3.668v-.93a.413.413,0,0,1,.125-.3.414.414,0,0,1,.3-.125h4.115a.415.415,0,0,1,.3.125.415.415,0,0,1,.126.3v.68A2.7,2.7,0,0,0-4.412-45a3.592,3.592,0,0,0,2.505.841,2.926,2.926,0,0,0,2.129-.716A2.442,2.442,0,0,0,.955-46.7,2.218,2.218,0,0,0,.49-48.116,4.963,4.963,0,0,0-.816-49.225q-.842-.518-2.595-1.414a30.292,30.292,0,0,1-3.507-2,8.569,8.569,0,0,1-2.326-2.4,6.3,6.3,0,0,1-.966-3.543,6.648,6.648,0,0,1,.984-3.632,6.42,6.42,0,0,1,2.773-2.4,9.487,9.487,0,0,1,4.08-.841,9.554,9.554,0,0,1,4.259.912,6.968,6.968,0,0,1,2.9,2.559,6.962,6.962,0,0,1,1.038,3.794v.716a.414.414,0,0,1-.125.3.413.413,0,0,1-.3.126H1.278a.412.412,0,0,1-.3-.126.413.413,0,0,1-.125-.3v-.644a2.855,2.855,0,0,0-.895-2.147,3.367,3.367,0,0,0-2.434-.859,2.909,2.909,0,0,0-2.022.662,2.356,2.356,0,0,0-.733,1.843,2.417,2.417,0,0,0,.429,1.431,4.476,4.476,0,0,0,1.324,1.163q.894.555,2.72,1.449l.751.429A32.893,32.893,0,0,1,3.228-52.16a7.279,7.279,0,0,1,1.95,2.129,5.861,5.861,0,0,1,.788,3.113,6.5,6.5,0,0,1-2.2,5.171,8.6,8.6,0,0,1-5.851,1.915,10.053,10.053,0,0,1-4.33-.877" transform="translate(10.317 65.454)" fill="#fff"/>
      </g>
      <g id="Group_124" data-name="Group 124" transform="translate(78.729 29.525)">
        <path id="Path_83" data-name="Path 83" d="M-6.416-40.031A7.1,7.1,0,0,1-9.3-42.84a8.338,8.338,0,0,1-1.02-4.169V-63.937a.414.414,0,0,1,.125-.3.414.414,0,0,1,.3-.125H-5.7a.417.417,0,0,1,.3.125.417.417,0,0,1,.125.3v17.177a3.5,3.5,0,0,0,.859,2.469,2.965,2.965,0,0,0,2.29.93,2.966,2.966,0,0,0,2.29-.93,3.5,3.5,0,0,0,.859-2.469V-63.937a.414.414,0,0,1,.125-.3.414.414,0,0,1,.3-.125H5.643a.417.417,0,0,1,.3.125.417.417,0,0,1,.125.3V-47.01a8.334,8.334,0,0,1-1.02,4.169,7.1,7.1,0,0,1-2.881,2.809,8.917,8.917,0,0,1-4.294,1,8.917,8.917,0,0,1-4.294-1" transform="translate(10.317 64.366)" fill="#fff"/>
      </g>
      <g id="Group_125" data-name="Group 125" transform="translate(98.733 29.525)">
        <path id="Path_84" data-name="Path 84" d="M-.206-41a.411.411,0,0,1-.125-.3V-65.5a.412.412,0,0,1,.125-.3.413.413,0,0,1,.3-.126H4.285a.416.416,0,0,1,.3.126.415.415,0,0,1,.125.3v20.112a.158.158,0,0,0,.179.179h9.591a.417.417,0,0,1,.3.125.417.417,0,0,1,.125.3v3.471a.414.414,0,0,1-.125.3.414.414,0,0,1-.3.125H.1A.411.411,0,0,1-.206-41" transform="translate(0.331 65.928)" fill="#fff"/>
      </g>
      <g id="Group_126" data-name="Group 126" transform="translate(112.689 29.525)">
        <path id="Path_85" data-name="Path 85" d="M-27.7-.206a.417.417,0,0,1,.125.3V3.605a.414.414,0,0,1-.125.3.414.414,0,0,1-.3.126h-5.439a.158.158,0,0,0-.179.179V24.29a.414.414,0,0,1-.125.3.413.413,0,0,1-.3.126h-4.187a.412.412,0,0,1-.3-.126.411.411,0,0,1-.125-.3V4.214a.158.158,0,0,0-.179-.179h-5.261a.411.411,0,0,1-.3-.126.411.411,0,0,1-.126-.3V.1a.414.414,0,0,1,.126-.3.414.414,0,0,1,.3-.125H-28a.417.417,0,0,1,.3.125" transform="translate(44.536 0.331)" fill="#fff"/>
      </g>
      <g id="Group_127" data-name="Group 127" transform="translate(132.479 29.525)">
        <path id="Path_86" data-name="Path 86" d="M-.206-41a.411.411,0,0,1-.125-.3V-65.5a.412.412,0,0,1,.125-.3.413.413,0,0,1,.3-.126H4.285a.416.416,0,0,1,.3.126.415.415,0,0,1,.125.3v24.191a.414.414,0,0,1-.125.3.414.414,0,0,1-.3.125H.1A.411.411,0,0,1-.206-41" transform="translate(0.331 65.928)" fill="#fff"/>
      </g>
      <g id="Group_128" data-name="Group 128" transform="translate(141.282 29.525)">
        <path id="Path_87" data-name="Path 87" d="M-20.457-.206a.414.414,0,0,1,.3-.125H-16a.417.417,0,0,1,.3.125.417.417,0,0,1,.125.3V24.29a.414.414,0,0,1-.125.3.414.414,0,0,1-.3.126h-4.366a.507.507,0,0,1-.5-.322L-27.7,9.832q-.072-.107-.143-.107c-.048,0-.072.048-.072.143l.036,14.422a.413.413,0,0,1-.126.3.413.413,0,0,1-.3.126h-4.151a.412.412,0,0,1-.3-.126.411.411,0,0,1-.125-.3V.1a.414.414,0,0,1,.125-.3.415.415,0,0,1,.3-.125h4.33a.507.507,0,0,1,.5.322L-20.8,14.556q.071.108.143.108c.048,0,.071-.048.071-.143V.1a.414.414,0,0,1,.126-.3" transform="translate(32.893 0.331)" fill="#fff"/>
      </g>
      <g id="Group_129" data-name="Group 129" transform="translate(161.966 29.238)">
        <path id="Path_88" data-name="Path 88" d="M-6.417-40.561A6.935,6.935,0,0,1-9.3-43.3a8.067,8.067,0,0,1-1.02-4.1V-57.452a7.969,7.969,0,0,1,1.02-4.08,6.972,6.972,0,0,1,2.881-2.72,9.185,9.185,0,0,1,4.294-.966,9.362,9.362,0,0,1,4.276.949,6.937,6.937,0,0,1,2.9,2.648,7.333,7.333,0,0,1,1.02,3.847v.787a.415.415,0,0,1-.125.3.414.414,0,0,1-.3.125H1.456a.411.411,0,0,1-.3-.125.412.412,0,0,1-.125-.3v-.752a3.126,3.126,0,0,0-.859-2.254,3.029,3.029,0,0,0-2.29-.895,3.024,3.024,0,0,0-2.308.93,3.4,3.4,0,0,0-.877,2.433v10.235A3.326,3.326,0,0,0-4.4-44.856a3.183,3.183,0,0,0,2.38.93,3.058,3.058,0,0,0,2.237-.823A3.01,3.01,0,0,0,1.062-47v-2.219A.158.158,0,0,0,.883-49.4H-1.908a.411.411,0,0,1-.3-.125.412.412,0,0,1-.125-.3v-3.257a.413.413,0,0,1,.125-.3.414.414,0,0,1,.3-.125H5.643a.417.417,0,0,1,.3.125.416.416,0,0,1,.125.3v5.69a7.453,7.453,0,0,1-2.237,5.69,8.324,8.324,0,0,1-5.958,2.111,9.185,9.185,0,0,1-4.294-.966" transform="translate(10.318 65.218)" fill="#fff"/>
      </g>
    </g>
  </g>
</svg>
