<svg xmlns="http://www.w3.org/2000/svg" xmlns:xlink="http://www.w3.org/1999/xlink" width="82.901" height="54.897" viewBox="0 0 82.901 54.897">
  <defs>
    <clipPath id="clip-path">
      <path id="Path_67" data-name="Path 67" d="M0-182.952H82.9v-54.9H0Z" transform="translate(0 237.849)" fill="none"/>
    </clipPath>
  </defs>
  <g id="Group_107" data-name="Group 107" clip-path="url(#clip-path)">
    <g id="Group_103" data-name="Group 103" transform="translate(0 0)">
      <path id="Path_63" data-name="Path 63" d="M-273.725-126.992h-3.757a.678.678,0,0,0-.767.767v1.764a8.805,8.805,0,0,1-2.914,6.9,11.178,11.178,0,0,1-7.744,2.606,9.983,9.983,0,0,1-7.131-2.453,8.436,8.436,0,0,1-2.607-6.44,8.22,8.22,0,0,1,1.227-4.524,12.528,12.528,0,0,1,3.6-3.527q2.377-1.611,6.824-4.064a72.671,72.671,0,0,0,7.475-4.447,15.649,15.649,0,0,0,4.409-4.677,12.706,12.706,0,0,0,1.687-6.747q0-6.21-3.987-9.737t-10.657-3.527q-7.13,0-11.347,3.91a12.977,12.977,0,0,0-2,2.344,13.863,13.863,0,0,0-4.8-4.3,16.87,16.87,0,0,0-8.242-1.955,16.865,16.865,0,0,0-8.242,1.955,13.629,13.629,0,0,0-4.744,4.26,12.99,12.99,0,0,0-1.974-2.305q-4.217-3.91-11.347-3.91-6.671,0-10.657,3.527t-3.987,9.737a12.706,12.706,0,0,0,1.687,6.747,15.648,15.648,0,0,0,4.409,4.677,72.666,72.666,0,0,0,7.475,4.447q4.446,2.455,6.824,4.064a12.528,12.528,0,0,1,3.6,3.527,8.22,8.22,0,0,1,1.227,4.524,8.436,8.436,0,0,1-2.607,6.44,9.983,9.983,0,0,1-7.131,2.453,11.178,11.178,0,0,1-7.744-2.606,8.8,8.8,0,0,1-2.914-6.9v-1.764a.678.678,0,0,0-.767-.767h-3.757a.678.678,0,0,0-.767.767v2.07A12.936,12.936,0,0,0-351.6-114q4.255,3.8,11.462,3.8,7.131,0,11.271-3.8a12.47,12.47,0,0,0,1.744-1.97,13.756,13.756,0,0,0,4.437,3.81,16.865,16.865,0,0,0,8.242,1.955,16.87,16.87,0,0,0,8.242-1.955A13.984,13.984,0,0,0-301.719-116,12.467,12.467,0,0,0-299.947-114q4.14,3.8,11.271,3.8,7.207,0,11.462-3.8a12.936,12.936,0,0,0,4.255-10.159v-2.07a.678.678,0,0,0-.767-.767m-56.44-7.894q-.322-.256-.661-.5a84.517,84.517,0,0,0-8.012-4.945q-4.525-2.453-6.709-3.911a11.5,11.5,0,0,1-3.335-3.22,7.835,7.835,0,0,1-1.15-4.37,8.119,8.119,0,0,1,2.415-6.287,9.533,9.533,0,0,1,6.709-2.224,10.518,10.518,0,0,1,7.591,2.645c1.84,1.764,3.153,6.468,3.153,9.329Zm8.28-22.507a9.848,9.848,0,0,1,7.437-2.952,9.945,9.945,0,0,1,7.514,2.952,10.764,10.764,0,0,1,2.837,7.782v19.942h-20.625V-149.61a10.76,10.76,0,0,1,2.837-7.782m14.951,39.524a10.01,10.01,0,0,1-7.514,2.913,9.911,9.911,0,0,1-7.437-2.913,10.52,10.52,0,0,1-2.837-7.667v-2.31a10.474,10.474,0,0,0,10.313,8.648,10.474,10.474,0,0,0,10.312-8.643v2.306a10.524,10.524,0,0,1-2.837,7.667m8.281-30.5c0-2.862,1.314-7.566,3.154-9.33a10.518,10.518,0,0,1,7.591-2.645,9.533,9.533,0,0,1,6.709,2.224,8.12,8.12,0,0,1,2.415,6.287,7.835,7.835,0,0,1-1.15,4.37,11.5,11.5,0,0,1-3.335,3.22q-2.185,1.458-6.709,3.911a84.512,84.512,0,0,0-8.012,4.945q-.34.247-.662.5Z" transform="translate(355.86 165.098)" fill="#efb658"/>
    </g>
    <g id="Group_104" data-name="Group 104" transform="translate(32.59 18.711)">
      <path id="Path_64" data-name="Path 64" d="M-13.933-27.866a4.181,4.181,0,0,0,4.181-4.181,4.181,4.181,0,0,0-4.181-4.181,4.181,4.181,0,0,0-4.181,4.181,4.181,4.181,0,0,0,4.181,4.181" transform="translate(18.114 36.228)" fill="#efb658"/>
    </g>
    <g id="Group_105" data-name="Group 105" transform="translate(41.95 18.711)">
      <path id="Path_65" data-name="Path 65" d="M-13.933-27.866a4.181,4.181,0,0,0,4.181-4.181,4.181,4.181,0,0,0-4.181-4.181,4.181,4.181,0,0,0-4.181,4.181,4.181,4.181,0,0,0,4.181,4.181" transform="translate(18.114 36.228)" fill="#efb658"/>
    </g>
    <g id="Group_106" data-name="Group 106" transform="translate(39.183 29.367)">
      <path id="Path_66" data-name="Path 66" d="M-7.557,0A2.268,2.268,0,0,0-9.825,2.268H-5.29A2.268,2.268,0,0,0-7.557,0" transform="translate(9.825)" fill="#efb658"/>
    </g>
  </g>
</svg>
