<svg xmlns="http://www.w3.org/2000/svg" xmlns:xlink="http://www.w3.org/1999/xlink" width="384.93" height="68.456" viewBox="0 0 384.93 68.456">
  <defs>
    <clipPath id="clip-path">
      <path id="Path_67" data-name="Path 67" d="M0-169.393H103.377v-68.456H0Z" transform="translate(0 237.849)" fill="none"/>
    </clipPath>
    <clipPath id="clip-path-2">
      <path id="Path_89" data-name="Path 89" d="M0-76.749H260.827V-145.2H0Z" transform="translate(0 145.205)" fill="#fff"/>
    </clipPath>
  </defs>
  <g id="Group_132" data-name="Group 132" transform="translate(-140 -39.849)">
    <g id="Group_108" data-name="Group 108" transform="translate(140 39.849)">
      <g id="Group_107" data-name="Group 107" transform="translate(0 0)" clip-path="url(#clip-path)">
        <g id="Group_103" data-name="Group 103" transform="translate(0 0)">
          <path id="Path_63" data-name="Path 63" d="M-253.44-117.581h-4.685a.846.846,0,0,0-.956.956v2.2a10.98,10.98,0,0,1-3.633,8.6q-3.632,3.251-9.656,3.25-5.64,0-8.892-3.059a10.52,10.52,0,0,1-3.251-8.031,10.25,10.25,0,0,1,1.53-5.641,15.622,15.622,0,0,1,4.494-4.4q2.965-2.008,8.509-5.067a90.616,90.616,0,0,0,9.322-5.545,19.513,19.513,0,0,0,5.5-5.832,15.844,15.844,0,0,0,2.1-8.414q0-7.744-4.972-12.142t-13.289-4.4q-8.891,0-14.15,4.876a16.182,16.182,0,0,0-2.494,2.922,17.287,17.287,0,0,0-5.98-5.36A21.036,21.036,0,0,0-304.22-165.1,21.03,21.03,0,0,0-314.5-162.66a17,17,0,0,0-5.916,5.312,16.2,16.2,0,0,0-2.462-2.874q-5.259-4.876-14.15-4.876-8.318,0-13.29,4.4t-4.971,12.142a15.845,15.845,0,0,0,2.1,8.414,19.513,19.513,0,0,0,5.5,5.832,90.611,90.611,0,0,0,9.322,5.545q5.544,3.061,8.509,5.067a15.622,15.622,0,0,1,4.494,4.4,10.25,10.25,0,0,1,1.529,5.641,10.52,10.52,0,0,1-3.25,8.031q-3.252,3.061-8.892,3.059-6.023,0-9.656-3.25a10.979,10.979,0,0,1-3.633-8.6v-2.2a.846.846,0,0,0-.956-.956H-354.9a.845.845,0,0,0-.956.956v2.581q0,7.937,5.306,12.668t14.293,4.733q8.892,0,14.054-4.733a15.551,15.551,0,0,0,2.175-2.456,17.153,17.153,0,0,0,5.533,4.751,21.03,21.03,0,0,0,10.278,2.438,21.036,21.036,0,0,0,10.278-2.438,17.438,17.438,0,0,0,5.595-4.8,15.544,15.544,0,0,0,2.21,2.5q5.162,4.732,14.054,4.733,8.987,0,14.293-4.733t5.306-12.668v-2.581a.845.845,0,0,0-.956-.956m-70.38-9.843q-.4-.319-.825-.626a105.389,105.389,0,0,0-9.991-6.167q-5.643-3.059-8.366-4.876a14.334,14.334,0,0,1-4.159-4.015,9.77,9.77,0,0,1-1.434-5.45q0-5.067,3.011-7.84t8.366-2.773q6.023,0,9.465,3.3c2.294,2.2,3.932,8.065,3.932,11.634Zm10.325-28.065a12.28,12.28,0,0,1,9.274-3.681,12.4,12.4,0,0,1,9.369,3.681,13.422,13.422,0,0,1,3.538,9.7v24.867h-25.719v-24.867a13.417,13.417,0,0,1,3.537-9.7m18.643,49.286a12.482,12.482,0,0,1-9.369,3.632,12.359,12.359,0,0,1-9.274-3.632,13.118,13.118,0,0,1-3.537-9.561v-2.88a13.061,13.061,0,0,0,12.86,10.784,13.061,13.061,0,0,0,12.859-10.778v2.875a13.123,13.123,0,0,1-3.538,9.561m10.326-38.035c0-3.569,1.638-9.435,3.933-11.634s5.449-3.3,9.465-3.3q5.355,0,8.366,2.773t3.011,7.84a9.769,9.769,0,0,1-1.434,5.45,14.335,14.335,0,0,1-4.159,4.015q-2.725,1.818-8.366,4.876a105.389,105.389,0,0,0-9.991,6.167q-.423.307-.825.626Z" transform="translate(355.86 165.098)" fill="#efb658"/>
        </g>
        <g id="Group_104" data-name="Group 104" transform="translate(40.639 23.332)">
          <path id="Path_64" data-name="Path 64" d="M-12.9-25.8a5.213,5.213,0,0,0,5.213-5.213A5.213,5.213,0,0,0-12.9-36.228a5.213,5.213,0,0,0-5.213,5.213A5.213,5.213,0,0,0-12.9-25.8" transform="translate(18.114 36.228)" fill="#efb658"/>
        </g>
        <g id="Group_105" data-name="Group 105" transform="translate(52.311 23.332)">
          <path id="Path_65" data-name="Path 65" d="M-12.9-25.8a5.213,5.213,0,0,0,5.213-5.213A5.213,5.213,0,0,0-12.9-36.228a5.213,5.213,0,0,0-5.213,5.213A5.213,5.213,0,0,0-12.9-25.8" transform="translate(18.114 36.228)" fill="#efb658"/>
        </g>
        <g id="Group_106" data-name="Group 106" transform="translate(48.861 36.62)">
          <path id="Path_66" data-name="Path 66" d="M-7,0A2.828,2.828,0,0,0-9.825,2.828H-4.17A2.828,2.828,0,0,0-7,0" transform="translate(9.825)" fill="#efb658"/>
        </g>
      </g>
    </g>
    <g id="Group_131" data-name="Group 131" transform="translate(264.102 39.849)">
      <g id="Group_130" data-name="Group 130" transform="translate(0 0)" clip-path="url(#clip-path-2)">
        <g id="Group_109" data-name="Group 109" transform="translate(0 0)">
          <path id="Path_68" data-name="Path 68" d="M-5.453-34.6a8.392,8.392,0,0,1-3.592-3.079,8.3,8.3,0,0,1-1.271-4.574v-1.16a.516.516,0,0,1,.156-.38.517.517,0,0,1,.38-.156H-4.65a.518.518,0,0,1,.379.156.518.518,0,0,1,.157.38v.848a3.37,3.37,0,0,0,1.16,2.61A4.479,4.479,0,0,0,.17-38.9a3.649,3.649,0,0,0,2.655-.892,3.045,3.045,0,0,0,.915-2.276,2.766,2.766,0,0,0-.58-1.763,6.188,6.188,0,0,0-1.629-1.383Q.481-45.863-1.7-46.98a37.773,37.773,0,0,1-4.373-2.5,10.685,10.685,0,0,1-2.9-2.989,7.856,7.856,0,0,1-1.2-4.418,8.29,8.29,0,0,1,1.227-4.53A8.009,8.009,0,0,1-5.5-64.406,11.831,11.831,0,0,1-.411-65.454,11.913,11.913,0,0,1,4.9-64.316a8.689,8.689,0,0,1,3.615,3.191A8.682,8.682,0,0,1,9.808-56.4v.892a.516.516,0,0,1-.156.379.516.516,0,0,1-.38.157H4.141a.515.515,0,0,1-.38-.157.514.514,0,0,1-.156-.379v-.8A3.558,3.558,0,0,0,2.49-58.983,4.2,4.2,0,0,0-.545-60.055a3.627,3.627,0,0,0-2.521.826,2.938,2.938,0,0,0-.915,2.3,3.011,3.011,0,0,0,.536,1.785A5.573,5.573,0,0,0-1.794-53.7Q-.679-53,1.6-51.888l.937.536a41.018,41.018,0,0,1,4.039,2.476,9.085,9.085,0,0,1,2.432,2.655,7.313,7.313,0,0,1,.982,3.882A8.109,8.109,0,0,1,7.243-35.89,10.721,10.721,0,0,1-.053-33.5a12.535,12.535,0,0,1-5.4-1.093" transform="translate(10.317 65.454)" fill="#fff"/>
        </g>
        <g id="Group_110" data-name="Group 110" transform="translate(24.097 0.357)">
          <path id="Path_69" data-name="Path 69" d="M-.175-34.847a.513.513,0,0,1-.156-.38V-65.392a.514.514,0,0,1,.156-.379.515.515,0,0,1,.38-.157H5.425a.518.518,0,0,1,.38.157.518.518,0,0,1,.156.379v25.079a.2.2,0,0,0,.223.223h11.96a.52.52,0,0,1,.38.156.52.52,0,0,1,.156.38v4.328a.517.517,0,0,1-.156.38.516.516,0,0,1-.38.156H.2a.513.513,0,0,1-.38-.156" transform="translate(0.331 65.928)" fill="#fff"/>
        </g>
        <g id="Group_111" data-name="Group 111" transform="translate(46.364 0.357)">
          <path id="Path_70" data-name="Path 70" d="M-.175-34.847a.513.513,0,0,1-.156-.38V-65.392a.514.514,0,0,1,.156-.379.515.515,0,0,1,.38-.157H5.425a.518.518,0,0,1,.38.157.518.518,0,0,1,.156.379v30.166a.517.517,0,0,1-.156.38.516.516,0,0,1-.38.156H.2a.513.513,0,0,1-.38-.156" transform="translate(0.331 65.928)" fill="#fff"/>
        </g>
        <g id="Group_112" data-name="Group 112" transform="translate(57.341 0.357)">
          <path id="Path_71" data-name="Path 71" d="M-.175-34.847a.513.513,0,0,1-.156-.38V-65.392a.514.514,0,0,1,.156-.379.515.515,0,0,1,.38-.157H9.8a11.973,11.973,0,0,1,5.288,1.116,8.273,8.273,0,0,1,3.548,3.168,9.007,9.007,0,0,1,1.25,4.775v13.12a9,9,0,0,1-1.25,4.775,8.262,8.262,0,0,1-3.548,3.169A11.967,11.967,0,0,1,9.8-34.691H.2a.513.513,0,0,1-.38-.156M6.184-40.09l3.659-.045a3.376,3.376,0,0,0,2.677-1.182,4.8,4.8,0,0,0,1.071-3.146V-56.155a4.7,4.7,0,0,0-1.026-3.191,3.428,3.428,0,0,0-2.722-1.182H6.184a.2.2,0,0,0-.223.223v19.992a.2.2,0,0,0,.223.223" transform="translate(0.331 65.928)" fill="#fff"/>
        </g>
        <g id="Group_113" data-name="Group 113" transform="translate(81.706 0.357)">
          <path id="Path_72" data-name="Path 72" d="M-21.138-5.879a.516.516,0,0,1-.38.156H-33.477A.2.2,0,0,0-33.7-5.5V1.462a.2.2,0,0,0,.223.223h7.452a.518.518,0,0,1,.38.157.518.518,0,0,1,.156.379V6.549a.516.516,0,0,1-.156.379.516.516,0,0,1-.38.157h-7.452a.2.2,0,0,0-.223.223v7.184a.2.2,0,0,0,.223.223h11.959a.52.52,0,0,1,.38.156.519.519,0,0,1,.156.379V19.58a.517.517,0,0,1-.156.38.516.516,0,0,1-.38.156H-39.456a.514.514,0,0,1-.38-.156.514.514,0,0,1-.156-.38V-10.586a.516.516,0,0,1,.156-.38.517.517,0,0,1,.38-.156h17.939a.52.52,0,0,1,.38.156.52.52,0,0,1,.156.38v4.328a.517.517,0,0,1-.156.38" transform="translate(39.992 11.122)" fill="#fff"/>
        </g>
        <g id="Group_114" data-name="Group 114" transform="translate(113.344 0.357)">
          <path id="Path_73" data-name="Path 73" d="M-20.063,0h5.176a.52.52,0,0,1,.38.156.52.52,0,0,1,.156.38V30.7a.517.517,0,0,1-.156.38.516.516,0,0,1-.38.156h-5.221a.513.513,0,0,1-.379-.156.514.514,0,0,1-.156-.38V10.888c0-.118-.03-.185-.09-.2s-.119.022-.178.112l-4.106,6.783a.639.639,0,0,1-.625.357h-1.026a.637.637,0,0,1-.625-.357L-31.4,10.8c-.06-.09-.119-.126-.179-.112s-.089.083-.089.2V30.7a.516.516,0,0,1-.157.38.515.515,0,0,1-.379.156h-5.221a.514.514,0,0,1-.38-.156.515.515,0,0,1-.156-.38V.536A.518.518,0,0,1-37.8.156.517.517,0,0,1-37.421,0h5.176a.64.64,0,0,1,.625.357l5.355,8.791q.134.268.268,0l5.31-8.791A.64.64,0,0,1-20.063,0" transform="translate(37.957 0)" fill="#fff"/>
        </g>
        <g id="Group_115" data-name="Group 115" transform="translate(141.056 0)">
          <path id="Path_74" data-name="Path 74" d="M-5.529-34.472A8.923,8.923,0,0,1-9.165-38a10.553,10.553,0,0,1-1.295-5.31v-11.87a10.463,10.463,0,0,1,1.295-5.266,8.923,8.923,0,0,1,3.637-3.525,11.354,11.354,0,0,1,5.422-1.25,11.489,11.489,0,0,1,5.444,1.25A8.9,8.9,0,0,1,9-60.443a10.467,10.467,0,0,1,1.294,5.266v11.87A10.558,10.558,0,0,1,9-38a8.9,8.9,0,0,1-3.659,3.525,11.483,11.483,0,0,1-5.444,1.25,11.348,11.348,0,0,1-5.422-1.25m8.412-5.377A4.562,4.562,0,0,0,4-43.04V-55.356a4.628,4.628,0,0,0-1.115-3.235,3.845,3.845,0,0,0-2.99-1.227,3.79,3.79,0,0,0-2.946,1.227,4.623,4.623,0,0,0-1.115,3.235V-43.04a4.557,4.557,0,0,0,1.115,3.191A3.789,3.789,0,0,0-.107-38.622a3.843,3.843,0,0,0,2.99-1.227" transform="translate(10.46 65.218)" fill="#fff"/>
        </g>
        <g id="Group_116" data-name="Group 116" transform="translate(166.001 0.357)">
          <path id="Path_75" data-name="Path 75" d="M-17.386-.175a.517.517,0,0,1,.38-.156h5.176a.519.519,0,0,1,.379.156.52.52,0,0,1,.156.38V30.371a.516.516,0,0,1-.156.379.516.516,0,0,1-.379.157h-5.444a.632.632,0,0,1-.625-.4l-8.523-18.162q-.09-.134-.178-.134c-.06,0-.09.06-.09.179l.045,17.984a.515.515,0,0,1-.157.379.515.515,0,0,1-.379.157h-5.176a.514.514,0,0,1-.38-.157.514.514,0,0,1-.156-.379V.2a.518.518,0,0,1,.156-.38.517.517,0,0,1,.38-.156h5.4a.632.632,0,0,1,.625.4l8.524,18.162q.088.134.178.134c.059,0,.089-.059.089-.179V.2a.516.516,0,0,1,.157-.38" transform="translate(32.893 0.331)" fill="#fff"/>
        </g>
        <g id="Group_117" data-name="Group 117" transform="translate(192.33 0.357)">
          <path id="Path_76" data-name="Path 76" d="M-.175-34.847a.513.513,0,0,1-.156-.38V-65.392a.514.514,0,0,1,.156-.379.515.515,0,0,1,.38-.157H5.425a.518.518,0,0,1,.38.157.518.518,0,0,1,.156.379v11.87a.172.172,0,0,0,.112.178c.074.03.126,0,.156-.089l7.988-12.138a.7.7,0,0,1,.625-.357H20.6a.463.463,0,0,1,.424.179.4.4,0,0,1-.067.446L12.7-52.5a.555.555,0,0,0,0,.312l8.747,16.868a.7.7,0,0,1,.089.268c0,.239-.164.357-.491.357H15.332a.688.688,0,0,1-.625-.4L8.371-47.319c-.03-.09-.075-.134-.134-.134s-.119.044-.179.134l-2.008,2.9a.682.682,0,0,0-.089.268v8.925a.517.517,0,0,1-.156.38.516.516,0,0,1-.38.156H.2a.513.513,0,0,1-.38-.156" transform="translate(0.331 65.928)" fill="#fff"/>
        </g>
        <g id="Group_118" data-name="Group 118" transform="translate(217.23 0.357)">
          <path id="Path_77" data-name="Path 77" d="M-21.138-5.879a.516.516,0,0,1-.38.156H-33.477A.2.2,0,0,0-33.7-5.5V1.462a.2.2,0,0,0,.223.223h7.452a.518.518,0,0,1,.38.157.518.518,0,0,1,.156.379V6.549a.516.516,0,0,1-.156.379.516.516,0,0,1-.38.157h-7.452a.2.2,0,0,0-.223.223v7.184a.2.2,0,0,0,.223.223h11.959a.52.52,0,0,1,.38.156.519.519,0,0,1,.156.379V19.58a.517.517,0,0,1-.156.38.516.516,0,0,1-.38.156H-39.456a.514.514,0,0,1-.38-.156.514.514,0,0,1-.156-.38V-10.586a.516.516,0,0,1,.156-.38.517.517,0,0,1,.38-.156h17.939a.52.52,0,0,1,.38.156.52.52,0,0,1,.156.38v4.328a.517.517,0,0,1-.156.38" transform="translate(39.992 11.122)" fill="#fff"/>
        </g>
        <g id="Group_119" data-name="Group 119" transform="translate(238.872 0.357)">
          <path id="Path_78" data-name="Path 78" d="M-8.931-34.8a.514.514,0,0,1-.157-.38V-46.6l-.044-.267-7.72-18.341a.614.614,0,0,1-.045-.268q0-.356.446-.357h5.623a.588.588,0,0,1,.625.446l4.15,11.29c.029.09.074.134.134.134s.1-.044.134-.134l4.15-11.29a.587.587,0,0,1,.625-.446H4.613q.312,0,.4.179a.575.575,0,0,1,0,.446L-2.75-46.867l-.045.267v11.424a.517.517,0,0,1-.156.38.516.516,0,0,1-.38.156H-8.551a.513.513,0,0,1-.38-.156" transform="translate(16.896 65.833)" fill="#fff"/>
        </g>
        <g id="Group_120" data-name="Group 120" transform="translate(0 36.46)">
          <path id="Path_79" data-name="Path 79" d="M-5.454-34.472a8.606,8.606,0,0,1-3.592-3.436,10.274,10.274,0,0,1-1.272-5.176V-55.49A10.06,10.06,0,0,1-9.046-60.6a8.65,8.65,0,0,1,3.592-3.414A11.453,11.453,0,0,1-.1-65.218a11.637,11.637,0,0,1,5.355,1.183,8.629,8.629,0,0,1,3.592,3.325,9.606,9.606,0,0,1,1.272,5v.223a.594.594,0,0,1-.156.4.487.487,0,0,1-.38.179l-5.221.223q-.535,0-.535-.491v-.58A4.077,4.077,0,0,0,2.757-58.7,3.777,3.777,0,0,0-.1-59.818,3.775,3.775,0,0,0-2.955-58.7a4.075,4.075,0,0,0-1.071,2.945v13.075A3.994,3.994,0,0,0-2.955-39.76,3.814,3.814,0,0,0-.1-38.666,3.816,3.816,0,0,0,2.757-39.76a4,4,0,0,0,1.071-2.923v-.58q0-.491.535-.491l5.221.223a.52.52,0,0,1,.38.156.52.52,0,0,1,.156.38v.134a9.846,9.846,0,0,1-1.272,5.043,8.542,8.542,0,0,1-3.592,3.369A11.631,11.631,0,0,1-.1-33.267a11.453,11.453,0,0,1-5.355-1.205" transform="translate(10.318 65.218)" fill="#fff"/>
        </g>
        <g id="Group_121" data-name="Group 121" transform="translate(23.918 36.46)">
          <path id="Path_80" data-name="Path 80" d="M-5.529-34.472A8.923,8.923,0,0,1-9.165-38a10.553,10.553,0,0,1-1.295-5.31v-11.87a10.463,10.463,0,0,1,1.295-5.266,8.923,8.923,0,0,1,3.637-3.525,11.354,11.354,0,0,1,5.422-1.25,11.489,11.489,0,0,1,5.444,1.25A8.9,8.9,0,0,1,9-60.443a10.467,10.467,0,0,1,1.294,5.266v11.87A10.558,10.558,0,0,1,9-38a8.9,8.9,0,0,1-3.659,3.525A11.483,11.483,0,0,1-.107-33.222a11.348,11.348,0,0,1-5.422-1.249m8.412-5.377A4.562,4.562,0,0,0,4-43.04V-55.356a4.628,4.628,0,0,0-1.115-3.235,3.845,3.845,0,0,0-2.99-1.227,3.79,3.79,0,0,0-2.946,1.227,4.623,4.623,0,0,0-1.115,3.235V-43.04a4.557,4.557,0,0,0,1.115,3.191A3.789,3.789,0,0,0-.107-38.622a3.843,3.843,0,0,0,2.99-1.227" transform="translate(10.46 65.218)" fill="#fff"/>
        </g>
        <g id="Group_122" data-name="Group 122" transform="translate(48.864 36.817)">
          <path id="Path_81" data-name="Path 81" d="M-17.386-.175a.517.517,0,0,1,.38-.156h5.176a.519.519,0,0,1,.379.156.52.52,0,0,1,.156.38V30.371a.516.516,0,0,1-.156.379.516.516,0,0,1-.379.157h-5.444a.632.632,0,0,1-.625-.4l-8.523-18.162q-.09-.134-.178-.134c-.06,0-.09.06-.09.179l.045,17.984a.515.515,0,0,1-.157.379.515.515,0,0,1-.379.157h-5.176a.514.514,0,0,1-.38-.157.514.514,0,0,1-.156-.379V.2a.518.518,0,0,1,.156-.38.517.517,0,0,1,.38-.156h5.4a.632.632,0,0,1,.625.4l8.524,18.162q.088.134.178.134c.059,0,.089-.059.089-.179V.2a.516.516,0,0,1,.157-.38" transform="translate(32.893 0.331)" fill="#fff"/>
        </g>
        <g id="Group_123" data-name="Group 123" transform="translate(74.3 36.46)">
          <path id="Path_82" data-name="Path 82" d="M-5.453-34.6a8.392,8.392,0,0,1-3.592-3.079,8.3,8.3,0,0,1-1.271-4.574v-1.16a.516.516,0,0,1,.156-.379.517.517,0,0,1,.38-.156H-4.65a.518.518,0,0,1,.379.156.518.518,0,0,1,.157.379v.848a3.37,3.37,0,0,0,1.16,2.61A4.479,4.479,0,0,0,.17-38.9a3.649,3.649,0,0,0,2.655-.892,3.045,3.045,0,0,0,.915-2.276,2.766,2.766,0,0,0-.58-1.763,6.188,6.188,0,0,0-1.629-1.383Q.481-45.863-1.7-46.98a37.773,37.773,0,0,1-4.373-2.5,10.685,10.685,0,0,1-2.9-2.989,7.856,7.856,0,0,1-1.2-4.418,8.29,8.29,0,0,1,1.227-4.53A8.006,8.006,0,0,1-5.5-64.406,11.831,11.831,0,0,1-.411-65.454,11.913,11.913,0,0,1,4.9-64.316a8.689,8.689,0,0,1,3.615,3.191A8.682,8.682,0,0,1,9.808-56.4v.892a.516.516,0,0,1-.156.379.516.516,0,0,1-.38.157H4.141a.514.514,0,0,1-.38-.157.514.514,0,0,1-.156-.379v-.8A3.56,3.56,0,0,0,2.49-58.983,4.2,4.2,0,0,0-.545-60.055a3.627,3.627,0,0,0-2.521.826,2.938,2.938,0,0,0-.915,2.3,3.014,3.014,0,0,0,.535,1.785A5.581,5.581,0,0,0-1.794-53.7Q-.679-53,1.6-51.888l.937.536a41.018,41.018,0,0,1,4.039,2.476A9.077,9.077,0,0,1,9-46.221a7.309,7.309,0,0,1,.982,3.882A8.109,8.109,0,0,1,7.243-35.89,10.721,10.721,0,0,1-.053-33.5a12.535,12.535,0,0,1-5.4-1.093" transform="translate(10.317 65.454)" fill="#fff"/>
        </g>
        <g id="Group_124" data-name="Group 124" transform="translate(98.173 36.817)">
          <path id="Path_83" data-name="Path 83" d="M-5.453-34.021a8.853,8.853,0,0,1-3.592-3.5,10.4,10.4,0,0,1-1.271-5.2V-63.83a.516.516,0,0,1,.156-.38.517.517,0,0,1,.38-.156h5.221a.52.52,0,0,1,.38.156.52.52,0,0,1,.156.38v21.42a4.358,4.358,0,0,0,1.071,3.079A3.7,3.7,0,0,0-.1-38.171a3.7,3.7,0,0,0,2.856-1.16,4.36,4.36,0,0,0,1.071-3.079V-63.83a.516.516,0,0,1,.156-.38.516.516,0,0,1,.379-.156H9.585a.52.52,0,0,1,.38.156.52.52,0,0,1,.156.38v21.107a10.393,10.393,0,0,1-1.272,5.2,8.853,8.853,0,0,1-3.592,3.5A11.119,11.119,0,0,1-.1-32.772a11.119,11.119,0,0,1-5.355-1.249" transform="translate(10.317 64.366)" fill="#fff"/>
        </g>
        <g id="Group_125" data-name="Group 125" transform="translate(123.118 36.817)">
          <path id="Path_84" data-name="Path 84" d="M-.175-34.847a.513.513,0,0,1-.156-.38V-65.392a.514.514,0,0,1,.156-.379.515.515,0,0,1,.38-.157H5.425a.518.518,0,0,1,.38.157.518.518,0,0,1,.156.379v25.079a.2.2,0,0,0,.223.223h11.96a.52.52,0,0,1,.38.156.52.52,0,0,1,.156.38v4.328a.517.517,0,0,1-.156.38.516.516,0,0,1-.38.156H.2a.513.513,0,0,1-.38-.156" transform="translate(0.331 65.928)" fill="#fff"/>
        </g>
        <g id="Group_126" data-name="Group 126" transform="translate(140.521 36.817)">
          <path id="Path_85" data-name="Path 85" d="M-23.54-.175a.52.52,0,0,1,.156.38V4.578a.516.516,0,0,1-.156.379.516.516,0,0,1-.38.157H-30.7a.2.2,0,0,0-.223.223V30.371a.516.516,0,0,1-.156.379.515.515,0,0,1-.379.157h-5.221a.514.514,0,0,1-.38-.157.513.513,0,0,1-.156-.379V5.336a.2.2,0,0,0-.223-.223H-44a.513.513,0,0,1-.379-.157.513.513,0,0,1-.157-.379V.2a.516.516,0,0,1,.157-.38A.516.516,0,0,1-44-.331h20.081a.52.52,0,0,1,.38.156" transform="translate(44.536 0.331)" fill="#fff"/>
        </g>
        <g id="Group_127" data-name="Group 127" transform="translate(165.198 36.817)">
          <path id="Path_86" data-name="Path 86" d="M-.175-34.847a.513.513,0,0,1-.156-.38V-65.392a.514.514,0,0,1,.156-.379.515.515,0,0,1,.38-.157H5.425a.518.518,0,0,1,.38.157.518.518,0,0,1,.156.379v30.166a.517.517,0,0,1-.156.38.516.516,0,0,1-.38.156H.2a.513.513,0,0,1-.38-.156" transform="translate(0.331 65.928)" fill="#fff"/>
        </g>
        <g id="Group_128" data-name="Group 128" transform="translate(176.175 36.817)">
          <path id="Path_87" data-name="Path 87" d="M-17.386-.175a.517.517,0,0,1,.38-.156h5.176a.52.52,0,0,1,.38.156.52.52,0,0,1,.156.38V30.371a.516.516,0,0,1-.156.379.516.516,0,0,1-.38.157h-5.444a.632.632,0,0,1-.625-.4l-8.523-18.162q-.09-.134-.178-.134c-.06,0-.09.06-.09.179l.045,17.984a.515.515,0,0,1-.157.379.515.515,0,0,1-.379.157h-5.176a.514.514,0,0,1-.38-.157.513.513,0,0,1-.156-.379V.2a.516.516,0,0,1,.156-.38.517.517,0,0,1,.38-.156h5.4a.632.632,0,0,1,.625.4l8.524,18.162q.088.134.178.134c.059,0,.089-.059.089-.179V.2a.516.516,0,0,1,.157-.38" transform="translate(32.893 0.331)" fill="#fff"/>
        </g>
        <g id="Group_129" data-name="Group 129" transform="translate(201.968 36.46)">
          <path id="Path_88" data-name="Path 88" d="M-5.454-34.472a8.647,8.647,0,0,1-3.592-3.414,10.059,10.059,0,0,1-1.272-5.109V-55.534a9.937,9.937,0,0,1,1.272-5.087,8.694,8.694,0,0,1,3.592-3.392A11.453,11.453,0,0,1-.1-65.218a11.674,11.674,0,0,1,5.332,1.183,8.651,8.651,0,0,1,3.615,3.3,9.144,9.144,0,0,1,1.272,4.8v.982a.517.517,0,0,1-.156.38.516.516,0,0,1-.38.156H4.364a.513.513,0,0,1-.379-.156.514.514,0,0,1-.156-.38v-.937A3.9,3.9,0,0,0,2.757-58.7,3.777,3.777,0,0,0-.1-59.818a3.77,3.77,0,0,0-2.878,1.16A4.241,4.241,0,0,0-4.07-55.624v12.763a4.148,4.148,0,0,0,1.138,3.034,3.969,3.969,0,0,0,2.968,1.16,3.813,3.813,0,0,0,2.789-1.026A3.753,3.753,0,0,0,3.873-42.5v-2.767a.2.2,0,0,0-.223-.223H.169a.513.513,0,0,1-.38-.156.514.514,0,0,1-.156-.38V-50.09a.516.516,0,0,1,.156-.379.517.517,0,0,1,.38-.156H9.585a.52.52,0,0,1,.38.156.519.519,0,0,1,.156.379v7.1a9.293,9.293,0,0,1-2.789,7.1A10.38,10.38,0,0,1-.1-33.267a11.453,11.453,0,0,1-5.355-1.205" transform="translate(10.318 65.218)" fill="#fff"/>
        </g>
      </g>
    </g>
  </g>
</svg>
